<svg width="64" height="64" viewBox="0 0 64 64" xmlns="http://www.w3.org/2000/svg">
  <defs>
    <linearGradient id="cloudGradient" x1="0%" y1="0%" x2="100%" y2="100%">
      <stop offset="0%" style="stop-color:#2563eb;stop-opacity:1" />
      <stop offset="100%" style="stop-color:#1d4ed8;stop-opacity:1" />
    </linearGradient>
    <linearGradient id="fileGradient" x1="0%" y1="0%" x2="100%" y2="100%">
      <stop offset="0%" style="stop-color:#f8fafc;stop-opacity:1" />
      <stop offset="100%" style="stop-color:#e2e8f0;stop-opacity:1" />
    </linearGradient>
  </defs>
  
  <!-- Cloud background -->
  <path d="M52 26c2.7 0 5.1 1.4 6.8 4.1 1.8 2.6 2.8 6.0 2.8 9.8 0 7.7-4.3 13.8-9.6 13.8H16c-6 0-10.8-7.0-10.8-15.6s4.8-15.6 10.8-15.6c1.0 0 1.8 0.1 2.6 0.6C20.9 18.9 27.5 11.9 35.5 11.9c9.2 0 16.8 10.9 16.8 24.2 1.0-3.1 3.3-5.2 5.4-5.2z" 
        fill="url(#cloudGradient)" 
        opacity="0.9"/>
  
  <!-- File icon in front -->
  <rect x="22" y="24" width="20" height="25" 
        fill="url(#fileGradient)" 
        stroke="#64748b" 
        stroke-width="1" 
        rx="2"/>
  
  <!-- File fold -->
  <path d="M37 24 L42 24 L42 29 L37 24" 
        fill="#cbd5e1" 
        stroke="#64748b" 
        stroke-width="1"/>
  
  <!-- File lines -->
  <line x1="25" y1="32" x2="39" y2="32" stroke="#94a3b8" stroke-width="1"/>
  <line x1="25" y1="36" x2="36" y2="36" stroke="#94a3b8" stroke-width="1"/>
  <line x1="25" y1="40" x2="39" y2="40" stroke="#94a3b8" stroke-width="1"/>
  <line x1="25" y1="44" x2="33" y2="44" stroke="#94a3b8" stroke-width="1"/>
  
  <!-- Lock icon for security -->
  <circle cx="48" cy="23" r="7" fill="#fbbf24" opacity="0.9"/>
  <rect x="44.5" y="20" width="7" height="4" fill="none" stroke="#92400e" stroke-width="1.5" rx="2"/>
  <rect x="43.5" y="22" width="9" height="6" fill="#92400e" rx="1"/>
</svg>